<?xml version="1.0" encoding="UTF-8"?>
      <mxfile host="codeviz.app" modified="2025-05-25T12:21:49.628Z" agent="CodeViz Exporter" version="14.6.5" type="device">
        <diagram id="codeviz-diagram" name="System Diagram">
          <mxGraphModel dx="1000" dy="1000" grid="1" gridSize="10" guides="1" tooltips="1" connect="1" arrows="1" fold="1" page="1" pageScale="1" pageWidth="1169" pageHeight="827" math="0" shadow="0">
            <root>
              <mxCell id="0"/>
              <mxCell id="1" parent="0"/>
              <mxCell id="1226" value="" style="html=1;whiteSpace=wrap;container=1;fillColor=#dae8fc;strokeColor=#6c8ebf;dashed=1;fillOpacity=20;strokeWidth=2;containerType=none;recursiveResize=0;movable=1;resizable=1;autosize=0;dropTarget=0" vertex="1" parent="1">
                <mxGeometry x="22" y="1347" width="675.4734936887214" height="429.07891561478687" as="geometry"/>
              </mxCell>
              <mxCell id="1226_label" value="External Systems" style="edgeLabel;html=1;align=center;verticalAlign=middle;resizable=0;labelBackgroundColor=white;spacing=5" vertex="1" parent="1">
                <mxGeometry x="30" y="1355" width="599.4734936887214" height="24" as="geometry"/>
              </mxCell>
<mxCell id="1227" value="" style="html=1;whiteSpace=wrap;container=1;fillColor=#dae8fc;strokeColor=#6c8ebf;dashed=1;fillOpacity=20;strokeWidth=2;containerType=none;recursiveResize=0;movable=1;resizable=1;autosize=0;dropTarget=0" vertex="1" parent="1">
                <mxGeometry x="116.07891561478687" y="252" width="486.3156624591476" height="984.0789156147869" as="geometry"/>
              </mxCell>
              <mxCell id="1227_label" value="LaFilmoteca Web App&lt;br&gt;React, Vite" style="edgeLabel;html=1;align=center;verticalAlign=middle;resizable=0;labelBackgroundColor=white;spacing=5" vertex="1" parent="1">
                <mxGeometry x="124.07891561478687" y="260" width="410.3156624591476" height="24" as="geometry"/>
              </mxCell>
              <mxCell id="1234" value="User&lt;br&gt;External Actor" style="rounded=1;whiteSpace=wrap;html=1;fillColor=#f5f5f5" vertex="1" parent="1">
                    <mxGeometry x="230.15783122957376" y="12" width="168.1578312295738" height="84.0789156147869" as="geometry"/>
                  </mxCell>
<mxCell id="1228" value="App Entry Point&lt;br&gt;TypeScript, React" style="rounded=1;whiteSpace=wrap;html=1;fillColor=#f5f5f5" vertex="1" parent="1227">
                    <mxGeometry x="124.0789156147869" y="120" width="168.1578312295738" height="84.0789156147869" as="geometry"/>
                  </mxCell>
<mxCell id="1229" value="Router&lt;br&gt;React Router" style="rounded=1;whiteSpace=wrap;html=1;fillColor=#f5f5f5" vertex="1" parent="1227">
                    <mxGeometry x="152.10522081971584" y="305" width="168.1578312295738" height="84.0789156147869" as="geometry"/>
                  </mxCell>
<mxCell id="1230" value="Page Components&lt;br&gt;React" style="rounded=1;whiteSpace=wrap;html=1;fillColor=#f5f5f5" vertex="1" parent="1227">
                    <mxGeometry x="152.10522081971584" y="490" width="168.1578312295738" height="84.0789156147869" as="geometry"/>
                  </mxCell>
<mxCell id="1231" value="UI Components&lt;br&gt;React" style="rounded=1;whiteSpace=wrap;html=1;fillColor=#f5f5f5" vertex="1" parent="1227">
                    <mxGeometry x="152.10522081971584" y="675" width="168.1578312295738" height="84.0789156147869" as="geometry"/>
                  </mxCell>
<mxCell id="1232" value="Client Libraries&lt;br&gt;TypeScript, Firebase SDK" style="rounded=1;whiteSpace=wrap;html=1;fillColor=#f5f5f5" vertex="1" parent="1227">
                    <mxGeometry x="238.1578312295738" y="860" width="168.1578312295738" height="84.0789156147869" as="geometry"/>
                  </mxCell>
<mxCell id="1233" value="Authentication Logic&lt;br&gt;React Context, Firebase Auth" style="rounded=1;whiteSpace=wrap;html=1;fillColor=#f5f5f5" vertex="1" parent="1227">
                    <mxGeometry x="40" y="860" width="168.1578312295738" height="84.0789156147869" as="geometry"/>
                  </mxCell>
<mxCell id="1235" value="Firebase Authentication&lt;br&gt;Firebase Auth" style="rounded=1;whiteSpace=wrap;html=1;fillColor=#f5f5f5" vertex="1" parent="1226">
                    <mxGeometry x="238.1578312295738" y="170" width="168.1578312295738" height="84.0789156147869" as="geometry"/>
                  </mxCell>
<mxCell id="1236" value="Firestore Database&lt;br&gt;Firebase Firestore" style="rounded=1;whiteSpace=wrap;html=1;fillColor=#f5f5f5" vertex="1" parent="1226">
                    <mxGeometry x="68.02630520492897" y="305" width="168.1578312295738" height="84.0789156147869" as="geometry"/>
                  </mxCell>
<mxCell id="1237" value="TMDB API&lt;br&gt;TheMovieDB API" style="rounded=1;whiteSpace=wrap;html=1;fillColor=#f5f5f5" vertex="1" parent="1226">
                    <mxGeometry x="427.3156624591476" y="120" width="168.1578312295738" height="84.0789156147869" as="geometry"/>
                  </mxCell>
<mxCell id="1238" value="GraphQL API Layer&lt;br&gt;Hasura (presumed), GraphQL" style="rounded=1;whiteSpace=wrap;html=1;fillColor=#f5f5f5" vertex="1" parent="1226">
                    <mxGeometry x="40" y="120" width="168.1578312295738" height="84.0789156147869" as="geometry"/>
                  </mxCell>
              <mxCell id="edge-1465" style="edgeStyle=orthogonalEdgeStyle;rounded=1;orthogonalLoop=1;jettySize=auto;html=1;strokeColor=#808080;strokeWidth=2;jumpStyle=arc;jumpSize=10;spacing=15;labelBackgroundColor=white;labelBorderColor=none" edge="1" parent="1" source="1234" target="1228">
                  <mxGeometry relative="1" as="geometry"/>
                </mxCell>
                <mxCell id="edge-1465_label" value="Interacts with" style="edgeLabel;html=1;align=center;verticalAlign=middle;resizable=0;points=[];" vertex="1" connectable="0" parent="edge-1465">
                  <mxGeometry x="-0.2" y="10" relative="1" as="geometry">
                    <mxPoint as="offset"/>
                  </mxGeometry>
                </mxCell>
<mxCell id="edge-1466" style="edgeStyle=orthogonalEdgeStyle;rounded=1;orthogonalLoop=1;jettySize=auto;html=1;strokeColor=#808080;strokeWidth=2;jumpStyle=arc;jumpSize=10;spacing=15;labelBackgroundColor=white;labelBorderColor=none" edge="1" parent="1" source="1228" target="1229">
                  <mxGeometry relative="1" as="geometry"/>
                </mxCell>
                <mxCell id="edge-1466_label" value="Initializes &amp; Renders" style="edgeLabel;html=1;align=center;verticalAlign=middle;resizable=0;points=[];" vertex="1" connectable="0" parent="edge-1466">
                  <mxGeometry x="-0.2" y="10" relative="1" as="geometry">
                    <mxPoint as="offset"/>
                  </mxGeometry>
                </mxCell>
<mxCell id="edge-1467" style="edgeStyle=orthogonalEdgeStyle;rounded=1;orthogonalLoop=1;jettySize=auto;html=1;strokeColor=#808080;strokeWidth=2;jumpStyle=arc;jumpSize=10;spacing=15;labelBackgroundColor=white;labelBorderColor=none" edge="1" parent="1" source="1228" target="1233">
                  <mxGeometry relative="1" as="geometry"/>
                </mxCell>
                <mxCell id="edge-1467_label" value="Sets up" style="edgeLabel;html=1;align=center;verticalAlign=middle;resizable=0;points=[];" vertex="1" connectable="0" parent="edge-1467">
                  <mxGeometry x="-0.2" y="10" relative="1" as="geometry">
                    <mxPoint as="offset"/>
                  </mxGeometry>
                </mxCell>
<mxCell id="edge-1468" style="edgeStyle=orthogonalEdgeStyle;rounded=1;orthogonalLoop=1;jettySize=auto;html=1;strokeColor=#808080;strokeWidth=2;jumpStyle=arc;jumpSize=10;spacing=15;labelBackgroundColor=white;labelBorderColor=none" edge="1" parent="1" source="1229" target="1230">
                  <mxGeometry relative="1" as="geometry"/>
                </mxCell>
                <mxCell id="edge-1468_label" value="Routes to" style="edgeLabel;html=1;align=center;verticalAlign=middle;resizable=0;points=[];" vertex="1" connectable="0" parent="edge-1468">
                  <mxGeometry x="-0.2" y="10" relative="1" as="geometry">
                    <mxPoint as="offset"/>
                  </mxGeometry>
                </mxCell>
<mxCell id="edge-1469" style="edgeStyle=orthogonalEdgeStyle;rounded=1;orthogonalLoop=1;jettySize=auto;html=1;strokeColor=#808080;strokeWidth=2;jumpStyle=arc;jumpSize=10;spacing=15;labelBackgroundColor=white;labelBorderColor=none" edge="1" parent="1" source="1230" target="1231">
                  <mxGeometry relative="1" as="geometry"/>
                </mxCell>
                <mxCell id="edge-1469_label" value="Uses" style="edgeLabel;html=1;align=center;verticalAlign=middle;resizable=0;points=[];" vertex="1" connectable="0" parent="edge-1469">
                  <mxGeometry x="-0.2" y="10" relative="1" as="geometry">
                    <mxPoint as="offset"/>
                  </mxGeometry>
                </mxCell>
<mxCell id="edge-1470" style="edgeStyle=orthogonalEdgeStyle;rounded=1;orthogonalLoop=1;jettySize=auto;html=1;strokeColor=#808080;strokeWidth=2;jumpStyle=arc;jumpSize=10;spacing=15;labelBackgroundColor=white;labelBorderColor=none" edge="1" parent="1" source="1230" target="1232">
                  <mxGeometry relative="1" as="geometry"/>
                </mxCell>
                <mxCell id="edge-1470_label" value="Uses" style="edgeLabel;html=1;align=center;verticalAlign=middle;resizable=0;points=[];" vertex="1" connectable="0" parent="edge-1470">
                  <mxGeometry x="-0.2" y="10" relative="1" as="geometry">
                    <mxPoint as="offset"/>
                  </mxGeometry>
                </mxCell>
<mxCell id="edge-1471" style="edgeStyle=orthogonalEdgeStyle;rounded=1;orthogonalLoop=1;jettySize=auto;html=1;strokeColor=#808080;strokeWidth=2;jumpStyle=arc;jumpSize=10;spacing=15;labelBackgroundColor=white;labelBorderColor=none" edge="1" parent="1" source="1230" target="1233">
                  <mxGeometry relative="1" as="geometry"/>
                </mxCell>
                <mxCell id="edge-1471_label" value="Accesses auth state via" style="edgeLabel;html=1;align=center;verticalAlign=middle;resizable=0;points=[];" vertex="1" connectable="0" parent="edge-1471">
                  <mxGeometry x="-0.2" y="10" relative="1" as="geometry">
                    <mxPoint as="offset"/>
                  </mxGeometry>
                </mxCell>
<mxCell id="edge-1472" style="edgeStyle=orthogonalEdgeStyle;rounded=1;orthogonalLoop=1;jettySize=auto;html=1;strokeColor=#808080;strokeWidth=2;jumpStyle=arc;jumpSize=10;spacing=15;labelBackgroundColor=white;labelBorderColor=none" edge="1" parent="1" source="1231" target="1232">
                  <mxGeometry relative="1" as="geometry"/>
                </mxCell>
                <mxCell id="edge-1472_label" value="May use" style="edgeLabel;html=1;align=center;verticalAlign=middle;resizable=0;points=[];" vertex="1" connectable="0" parent="edge-1472">
                  <mxGeometry x="-0.2" y="10" relative="1" as="geometry">
                    <mxPoint as="offset"/>
                  </mxGeometry>
                </mxCell>
<mxCell id="edge-1473" style="edgeStyle=orthogonalEdgeStyle;rounded=1;orthogonalLoop=1;jettySize=auto;html=1;strokeColor=#808080;strokeWidth=2;jumpStyle=arc;jumpSize=10;spacing=15;labelBackgroundColor=white;labelBorderColor=none" edge="1" parent="1" source="1231" target="1233">
                  <mxGeometry relative="1" as="geometry"/>
                </mxCell>
                <mxCell id="edge-1473_label" value="May access auth state via" style="edgeLabel;html=1;align=center;verticalAlign=middle;resizable=0;points=[];" vertex="1" connectable="0" parent="edge-1473">
                  <mxGeometry x="-0.2" y="10" relative="1" as="geometry">
                    <mxPoint as="offset"/>
                  </mxGeometry>
                </mxCell>
<mxCell id="edge-1474" style="edgeStyle=orthogonalEdgeStyle;rounded=1;orthogonalLoop=1;jettySize=auto;html=1;strokeColor=#808080;strokeWidth=2;jumpStyle=arc;jumpSize=10;spacing=15;labelBackgroundColor=white;labelBorderColor=none" edge="1" parent="1" source="1233" target="1235">
                  <mxGeometry relative="1" as="geometry"/>
                </mxCell>
                <mxCell id="edge-1474_label" value="Authenticates via" style="edgeLabel;html=1;align=center;verticalAlign=middle;resizable=0;points=[];" vertex="1" connectable="0" parent="edge-1474">
                  <mxGeometry x="-0.2" y="10" relative="1" as="geometry">
                    <mxPoint as="offset"/>
                  </mxGeometry>
                </mxCell>
<mxCell id="edge-1475" style="edgeStyle=orthogonalEdgeStyle;rounded=1;orthogonalLoop=1;jettySize=auto;html=1;strokeColor=#808080;strokeWidth=2;jumpStyle=arc;jumpSize=10;spacing=15;labelBackgroundColor=white;labelBorderColor=none" edge="1" parent="1" source="1232" target="1236">
                  <mxGeometry relative="1" as="geometry"/>
                </mxCell>
                <mxCell id="edge-1475_label" value="Reads/Writes data via" style="edgeLabel;html=1;align=center;verticalAlign=middle;resizable=0;points=[];" vertex="1" connectable="0" parent="edge-1475">
                  <mxGeometry x="-0.2" y="10" relative="1" as="geometry">
                    <mxPoint as="offset"/>
                  </mxGeometry>
                </mxCell>
<mxCell id="edge-1476" style="edgeStyle=orthogonalEdgeStyle;rounded=1;orthogonalLoop=1;jettySize=auto;html=1;strokeColor=#808080;strokeWidth=2;jumpStyle=arc;jumpSize=10;spacing=15;labelBackgroundColor=white;labelBorderColor=none" edge="1" parent="1" source="1232" target="1237">
                  <mxGeometry relative="1" as="geometry"/>
                </mxCell>
                <mxCell id="edge-1476_label" value="Fetches movie data from" style="edgeLabel;html=1;align=center;verticalAlign=middle;resizable=0;points=[];" vertex="1" connectable="0" parent="edge-1476">
                  <mxGeometry x="-0.2" y="10" relative="1" as="geometry">
                    <mxPoint as="offset"/>
                  </mxGeometry>
                </mxCell>
<mxCell id="edge-1477" style="edgeStyle=orthogonalEdgeStyle;rounded=1;orthogonalLoop=1;jettySize=auto;html=1;strokeColor=#808080;strokeWidth=2;jumpStyle=arc;jumpSize=10;spacing=15;labelBackgroundColor=white;labelBorderColor=none" edge="1" parent="1" source="1238" target="1236">
                  <mxGeometry relative="1" as="geometry"/>
                </mxCell>
                <mxCell id="edge-1477_label" value="Accesses data from" style="edgeLabel;html=1;align=center;verticalAlign=middle;resizable=0;points=[];" vertex="1" connectable="0" parent="edge-1477">
                  <mxGeometry x="-0.2" y="10" relative="1" as="geometry">
                    <mxPoint as="offset"/>
                  </mxGeometry>
                </mxCell>
            </root>
          </mxGraphModel>
        </diagram>
      </mxfile>